<svg width="241" height="29" viewBox="0 0 241 29" fill="none" xmlns="http://www.w3.org/2000/svg">
<g clip-path="url(#clip0_30_17)">
<path d="M82.2 6.70001V20C82.1 21.9 81.5 23.7 79.1 23.7V28.6C87.4 28.6 87.7 25.4 87.7 20V11.6H97.8V28.7H103.4V6.70001H82.2Z" fill="#2D3D80"/>
<path d="M51.2 13.7C51.2 6.80001 45 6.80001 39.9 6.70001H28.2V28.7H33.8V20.7H39.9C45.1 20.7 51.2 20.6 51.2 13.7ZM39.7 16.5H33.8V10.9H39.7C43.8 10.9 45.5 10.9 45.5 13.7C45.5 16.5 43.9 16.5 39.7 16.5Z" fill="#2D3D80"/>
<path d="M59.3 6.70001L49.2 28.7H55.3L57.2 24.5H68.8L70.7 28.7H77.2L66.7 6.70001H59.3ZM59.1 20.3L62.9 11.6L66.9 20.3H59.1Z" fill="#2D3D80"/>
<path d="M13.3 17.1L7.1 6.70001H0L10 22.7L6.6 28.7H13.4L26.2 6.70001H19.4L13.3 17.1Z" fill="#2D3D80"/>
<path d="M113 6.70001H107.3V28.7H113V17.7V6.70001Z" fill="#C73E36"/>
<path d="M122.9 6.70001L113 17.7L122.9 28.7H130.5L120.1 17.7L130.5 6.70001H122.9Z" fill="#C73E36"/>
<path d="M195.4 21.9V6.70001H189.7V28.7H195.9L207.6 13.7V28.7H213.3V6.70001H207L195.4 21.9Z" fill="#C73E36"/>
<path d="M234.4 6.70001L222.8 21.9V6.70001H217.2V28.7H223.4L235.1 13.7V28.7H240.7V6.70001H234.4Z" fill="#C73E36"/>
<path d="M164.6 20.1C164.5 22 163.9 23.8 161.5 23.8V28.7C169.8 28.7 170.1 25.5 170.1 20.1V11.7H180.2V28.8H185.8V6.79999H164.6V20.1Z" fill="#C73E36"/>
<path d="M141.7 6.70001L131.6 28.7H137.7L139.6 24.5H151.2L153.1 28.7H159.6L149.1 6.70001H141.7ZM141.5 20.3L145.3 11.6L149.3 20.3H141.5Z" fill="#C73E36"/>
<path d="M228.9 5C233.7 5 235.5 3.2 235.6 0H232.4C232.3 1.1 231.9 1.8 230.2 2.1C229.8 2.2 229.4 2.2 229 2.2C228.6 2.2 228.2 2.2 227.8 2.1C226.1 1.8 225.6 1.1 225.6 0H222.4C222.4 3.2 224.2 5 228.9 5Z" fill="#C73E36"/>
</g>
<defs>
<clipPath id="clip0_30_17">
<rect width="240.7" height="28.7" fill="white"/>
</clipPath>
</defs>
</svg>
