<svg width="255" height="80" viewBox="0 0 255 80" fill="none" xmlns="http://www.w3.org/2000/svg">
<g clip-path="url(#clip0_30_5)">
<path d="M103.8 79.4V47.7H118.6C125.5 47.7 129.2 52.4 129.2 57.9C129.2 63.4 125.4 68.1 118.6 68.1H110.5V79.4H103.8ZM122.3 57.9C122.3 55.2 120.3 53.6 117.6 53.6H110.4V62.2H117.6C120.3 62.2 122.3 60.6 122.3 57.9Z" fill="black"/>
<path d="M131.8 67.9C131.8 61.4 136.4 55.9 143.9 55.9C151.5 55.9 156.1 61.4 156.1 67.9C156.1 74.5 151.5 80 143.9 80C136.4 80 131.8 74.5 131.8 67.9ZM149.8 67.9C149.8 64.3 147.7 61.2 143.9 61.2C140.1 61.2 138.1 64.3 138.1 67.9C138.1 71.5 140.2 74.6 143.9 74.6C147.7 74.6 149.8 71.5 149.8 67.9Z" fill="black"/>
<path d="M160 67.9C160 60.9 165.1 55.9 172.2 55.9C176.9 55.9 179.8 57.9 181.3 60L177.4 63.7C176.3 62.1 174.6 61.2 172.6 61.2C168.9 61.2 166.4 63.9 166.4 67.9C166.4 71.9 169 74.6 172.6 74.6C174.7 74.6 176.4 73.6 177.4 72.1L181.3 75.8C179.8 77.9 176.9 80 172.2 80C165.1 80 160 75 160 67.9Z" fill="black"/>
<path d="M191.4 79.4V61.7H184.9V56.5H203.9V61.7H197.4V79.4H191.4Z" fill="black"/>
<path d="M206.2 67.9C206.2 61.2 211.1 55.9 218.1 55.9C224.9 55.9 229.6 61 229.6 68.5V69.8H212.5C212.9 72.7 215.2 75.1 219.1 75.1C221 75.1 223.8 74.2 225.2 72.8L227.9 76.7C225.6 78.8 222 79.9 218.4 79.9C211.5 80 206.2 75.3 206.2 67.9ZM218.1 60.7C214.3 60.7 212.7 63.5 212.4 65.8H223.7C223.6 63.6 222.1 60.7 218.1 60.7Z" fill="black"/>
<path d="M248.2 79.4L242.9 71.7L237.7 79.4H231L239.1 67.6L231.4 56.5H238.2L242.9 63.6L247.6 56.5H254.4L246.7 67.6L254.9 79.4H248.2Z" fill="black"/>
<path d="M69.1 37.2V10.4H42.4L52.8 0H79.5V13.1V26.7L69.1 37.2Z" fill="black"/>
<path d="M0 26.7V13.1V0H26.7L37.1 10.4H10.4V37.2L0 26.7Z" fill="black"/>
<path d="M0 52.8L10.4 42.4V69.1H37.1L26.7 79.5H0V52.8Z" fill="black"/>
<path d="M79.5 79.5H52.8L42.4 69.1H69.1V42.4L79.5 52.8V79.5Z" fill="black"/>
</g>
<defs>
<clipPath id="clip0_30_5">
<rect width="254.9" height="80" fill="white"/>
</clipPath>
</defs>
</svg>
