<svg width="322" height="244" viewBox="0 0 322 244" fill="none" xmlns="http://www.w3.org/2000/svg">
<circle cx="207" cy="207" r="9" fill="#114499" stroke="white" stroke-width="2"/>
<path d="M214.071 199.929L199.929 214.071" stroke="white"/>
<path d="M214.071 214.071L199.929 199.929" stroke="white"/>
<circle cx="18" cy="10" r="9" fill="#114499" stroke="white" stroke-width="2"/>
<path d="M25.1422 3L11 17.1421" stroke="white"/>
<path d="M25.1422 17.1421L11 2.99995" stroke="white"/>
<circle cx="227" cy="173" r="9" fill="#FF0000" stroke="white" stroke-width="2"/>
<path d="M234.142 166L220 180.142" stroke="white"/>
<path d="M234.142 180.142L220 166" stroke="white"/>
<circle cx="232" cy="195" r="9" fill="#114499" stroke="white" stroke-width="2"/>
<path d="M239.142 188L225 202.142" stroke="white"/>
<path d="M239.142 202.142L225 188" stroke="white"/>
<path d="M204.072 135.469V144H202.607V136.641H198.816V144H197.352V135.469H204.072ZM207.119 138.879V146.438H205.707V137.66H207.008L207.119 138.879ZM211.25 140.771V140.895C211.25 141.355 211.195 141.783 211.086 142.178C210.98 142.568 210.822 142.91 210.611 143.203C210.404 143.492 210.148 143.717 209.844 143.877C209.539 144.037 209.188 144.117 208.789 144.117C208.395 144.117 208.049 144.045 207.752 143.9C207.459 143.752 207.211 143.543 207.008 143.273C206.805 143.004 206.641 142.688 206.516 142.324C206.395 141.957 206.309 141.555 206.258 141.117V140.643C206.309 140.178 206.395 139.756 206.516 139.377C206.641 138.998 206.805 138.672 207.008 138.398C207.211 138.125 207.459 137.914 207.752 137.766C208.045 137.617 208.387 137.543 208.777 137.543C209.176 137.543 209.529 137.621 209.838 137.777C210.146 137.93 210.406 138.148 210.617 138.434C210.828 138.715 210.986 139.055 211.092 139.453C211.197 139.848 211.25 140.287 211.25 140.771ZM209.838 140.895V140.771C209.838 140.479 209.811 140.207 209.756 139.957C209.701 139.703 209.615 139.48 209.498 139.289C209.381 139.098 209.23 138.949 209.047 138.844C208.867 138.734 208.65 138.68 208.396 138.68C208.146 138.68 207.932 138.723 207.752 138.809C207.572 138.891 207.422 139.006 207.301 139.154C207.18 139.303 207.086 139.477 207.02 139.676C206.953 139.871 206.906 140.084 206.879 140.314V141.451C206.926 141.732 207.006 141.99 207.119 142.225C207.232 142.459 207.393 142.646 207.6 142.787C207.811 142.924 208.08 142.992 208.408 142.992C208.662 142.992 208.879 142.938 209.059 142.828C209.238 142.719 209.385 142.568 209.498 142.377C209.615 142.182 209.701 141.957 209.756 141.703C209.811 141.449 209.838 141.18 209.838 140.895ZM212.182 140.9V140.766C212.182 140.309 212.248 139.885 212.381 139.494C212.514 139.1 212.705 138.758 212.955 138.469C213.209 138.176 213.518 137.949 213.881 137.789C214.248 137.625 214.662 137.543 215.123 137.543C215.588 137.543 216.002 137.625 216.365 137.789C216.732 137.949 217.043 138.176 217.297 138.469C217.551 138.758 217.744 139.1 217.877 139.494C218.01 139.885 218.076 140.309 218.076 140.766V140.9C218.076 141.357 218.01 141.781 217.877 142.172C217.744 142.562 217.551 142.904 217.297 143.197C217.043 143.486 216.734 143.713 216.371 143.877C216.008 144.037 215.596 144.117 215.135 144.117C214.67 144.117 214.254 144.037 213.887 143.877C213.523 143.713 213.215 143.486 212.961 143.197C212.707 142.904 212.514 142.562 212.381 142.172C212.248 141.781 212.182 141.357 212.182 140.9ZM213.594 140.766V140.9C213.594 141.186 213.623 141.455 213.682 141.709C213.74 141.963 213.832 142.186 213.957 142.377C214.082 142.568 214.242 142.719 214.438 142.828C214.633 142.938 214.865 142.992 215.135 142.992C215.396 142.992 215.623 142.938 215.814 142.828C216.01 142.719 216.17 142.568 216.295 142.377C216.42 142.186 216.512 141.963 216.57 141.709C216.633 141.455 216.664 141.186 216.664 140.9V140.766C216.664 140.484 216.633 140.219 216.57 139.969C216.512 139.715 216.418 139.49 216.289 139.295C216.164 139.1 216.004 138.947 215.809 138.838C215.617 138.725 215.389 138.668 215.123 138.668C214.857 138.668 214.627 138.725 214.432 138.838C214.24 138.947 214.082 139.1 213.957 139.295C213.832 139.49 213.74 139.715 213.682 139.969C213.623 140.219 213.594 140.484 213.594 140.766ZM223.027 142.289L224.914 137.66H226.139L223.508 144H222.547L219.922 137.66H221.146L223.027 142.289ZM220.783 137.66V144H219.371V137.66H220.783ZM225.271 144V137.66H226.689V144H225.271ZM183.125 151.66V152.785H179.996V151.66H183.125ZM180.33 151.66V158H178.918V151.66H180.33ZM184.232 151.66V158H182.814V151.66H184.232ZM189.986 151.66V152.785H186.893V151.66H189.986ZM191.094 151.66V158H189.682V151.66H191.094ZM186.547 151.66H187.941L187.771 154.795C187.748 155.26 187.701 155.67 187.631 156.025C187.564 156.377 187.475 156.68 187.361 156.934C187.248 157.184 187.109 157.387 186.945 157.543C186.781 157.699 186.59 157.814 186.371 157.889C186.152 157.963 185.906 158 185.633 158H185.193L185.188 156.84L185.41 156.822C185.555 156.811 185.68 156.773 185.785 156.711C185.891 156.645 185.98 156.551 186.055 156.43C186.133 156.309 186.195 156.152 186.242 155.961C186.293 155.77 186.332 155.543 186.359 155.281C186.391 155.02 186.414 154.715 186.43 154.367L186.547 151.66ZM192.324 154.9V154.766C192.324 154.309 192.391 153.885 192.523 153.494C192.656 153.1 192.848 152.758 193.098 152.469C193.352 152.176 193.66 151.949 194.023 151.789C194.391 151.625 194.805 151.543 195.266 151.543C195.73 151.543 196.145 151.625 196.508 151.789C196.875 151.949 197.186 152.176 197.439 152.469C197.693 152.758 197.887 153.1 198.02 153.494C198.152 153.885 198.219 154.309 198.219 154.766V154.9C198.219 155.357 198.152 155.781 198.02 156.172C197.887 156.562 197.693 156.904 197.439 157.197C197.186 157.486 196.877 157.713 196.514 157.877C196.15 158.037 195.738 158.117 195.277 158.117C194.812 158.117 194.396 158.037 194.029 157.877C193.666 157.713 193.357 157.486 193.104 157.197C192.85 156.904 192.656 156.562 192.523 156.172C192.391 155.781 192.324 155.357 192.324 154.9ZM193.736 154.766V154.9C193.736 155.186 193.766 155.455 193.824 155.709C193.883 155.963 193.975 156.186 194.1 156.377C194.225 156.568 194.385 156.719 194.58 156.828C194.775 156.938 195.008 156.992 195.277 156.992C195.539 156.992 195.766 156.938 195.957 156.828C196.152 156.719 196.312 156.568 196.438 156.377C196.562 156.186 196.654 155.963 196.713 155.709C196.775 155.455 196.807 155.186 196.807 154.9V154.766C196.807 154.484 196.775 154.219 196.713 153.969C196.654 153.715 196.561 153.49 196.432 153.295C196.307 153.1 196.146 152.947 195.951 152.838C195.76 152.725 195.531 152.668 195.266 152.668C195 152.668 194.77 152.725 194.574 152.838C194.383 152.947 194.225 153.1 194.1 153.295C193.975 153.49 193.883 153.715 193.824 153.969C193.766 154.219 193.736 154.484 193.736 154.766ZM208.771 156.881L208.66 159.881H207.365V158H206.604V156.881H208.771ZM199.408 151.66H200.82V156.875H202.836V151.66H204.254V156.875H206.264V151.66H207.676V158H199.408V151.66ZM213.395 156.729V153.705C213.395 153.479 213.354 153.283 213.271 153.119C213.189 152.955 213.064 152.828 212.896 152.738C212.732 152.648 212.525 152.604 212.275 152.604C212.045 152.604 211.846 152.643 211.678 152.721C211.51 152.799 211.379 152.904 211.285 153.037C211.191 153.17 211.145 153.32 211.145 153.488H209.738C209.738 153.238 209.799 152.996 209.92 152.762C210.041 152.527 210.217 152.318 210.447 152.135C210.678 151.951 210.953 151.807 211.273 151.701C211.594 151.596 211.953 151.543 212.352 151.543C212.828 151.543 213.25 151.623 213.617 151.783C213.988 151.943 214.279 152.186 214.49 152.51C214.705 152.83 214.812 153.232 214.812 153.717V156.535C214.812 156.824 214.832 157.084 214.871 157.314C214.914 157.541 214.975 157.738 215.053 157.906V158H213.605C213.539 157.848 213.486 157.654 213.447 157.42C213.412 157.182 213.395 156.951 213.395 156.729ZM213.6 154.145L213.611 155.018H212.598C212.336 155.018 212.105 155.043 211.906 155.094C211.707 155.141 211.541 155.211 211.408 155.305C211.275 155.398 211.176 155.512 211.109 155.645C211.043 155.777 211.01 155.928 211.01 156.096C211.01 156.264 211.049 156.418 211.127 156.559C211.205 156.695 211.318 156.803 211.467 156.881C211.619 156.959 211.803 156.998 212.018 156.998C212.307 156.998 212.559 156.939 212.773 156.822C212.992 156.701 213.164 156.555 213.289 156.383C213.414 156.207 213.48 156.041 213.488 155.885L213.945 156.512C213.898 156.672 213.818 156.844 213.705 157.027C213.592 157.211 213.443 157.387 213.26 157.555C213.08 157.719 212.863 157.854 212.609 157.959C212.359 158.064 212.07 158.117 211.742 158.117C211.328 158.117 210.959 158.035 210.635 157.871C210.311 157.703 210.057 157.479 209.873 157.197C209.689 156.912 209.598 156.59 209.598 156.23C209.598 155.895 209.66 155.598 209.785 155.34C209.914 155.078 210.102 154.859 210.348 154.684C210.598 154.508 210.902 154.375 211.262 154.285C211.621 154.191 212.031 154.145 212.492 154.145H213.6ZM217.438 151.66H218.85L218.779 153.893C218.76 154.541 218.686 155.098 218.557 155.562C218.428 156.027 218.26 156.42 218.053 156.74C217.846 157.057 217.611 157.316 217.35 157.52C217.092 157.723 216.82 157.883 216.535 158H216.119V156.887L216.318 156.875C216.486 156.695 216.631 156.516 216.752 156.336C216.877 156.152 216.982 155.951 217.068 155.732C217.154 155.51 217.221 155.25 217.268 154.953C217.318 154.656 217.352 154.303 217.367 153.893L217.438 151.66ZM217.812 151.66H221.832V158H220.426V152.855H217.812V151.66ZM215.797 156.875H222.699V159.887H221.287V158H217.227V159.887H215.791L215.797 156.875ZM225.195 151.66V158H223.783V151.66H225.195ZM229.332 151.66L226.479 155.475H224.867L224.68 154.197H225.857L227.568 151.66H229.332ZM227.68 158L225.77 155.234L226.883 154.432L229.537 158H227.68ZM233.879 156.729V153.705C233.879 153.479 233.838 153.283 233.756 153.119C233.674 152.955 233.549 152.828 233.381 152.738C233.217 152.648 233.01 152.604 232.76 152.604C232.529 152.604 232.33 152.643 232.162 152.721C231.994 152.799 231.863 152.904 231.77 153.037C231.676 153.17 231.629 153.32 231.629 153.488H230.223C230.223 153.238 230.283 152.996 230.404 152.762C230.525 152.527 230.701 152.318 230.932 152.135C231.162 151.951 231.438 151.807 231.758 151.701C232.078 151.596 232.438 151.543 232.836 151.543C233.312 151.543 233.734 151.623 234.102 151.783C234.473 151.943 234.764 152.186 234.975 152.51C235.189 152.83 235.297 153.232 235.297 153.717V156.535C235.297 156.824 235.316 157.084 235.355 157.314C235.398 157.541 235.459 157.738 235.537 157.906V158H234.09C234.023 157.848 233.971 157.654 233.932 157.42C233.896 157.182 233.879 156.951 233.879 156.729ZM234.084 154.145L234.096 155.018H233.082C232.82 155.018 232.59 155.043 232.391 155.094C232.191 155.141 232.025 155.211 231.893 155.305C231.76 155.398 231.66 155.512 231.594 155.645C231.527 155.777 231.494 155.928 231.494 156.096C231.494 156.264 231.533 156.418 231.611 156.559C231.689 156.695 231.803 156.803 231.951 156.881C232.104 156.959 232.287 156.998 232.502 156.998C232.791 156.998 233.043 156.939 233.258 156.822C233.477 156.701 233.648 156.555 233.773 156.383C233.898 156.207 233.965 156.041 233.973 155.885L234.43 156.512C234.383 156.672 234.303 156.844 234.189 157.027C234.076 157.211 233.928 157.387 233.744 157.555C233.564 157.719 233.348 157.854 233.094 157.959C232.844 158.064 232.555 158.117 232.227 158.117C231.812 158.117 231.443 158.035 231.119 157.871C230.795 157.703 230.541 157.479 230.357 157.197C230.174 156.912 230.082 156.59 230.082 156.23C230.082 155.895 230.145 155.598 230.27 155.34C230.398 155.078 230.586 154.859 230.832 154.684C231.082 154.508 231.387 154.375 231.746 154.285C232.105 154.191 232.516 154.145 232.977 154.145H234.084ZM243.535 149.439V158H242.123V151.115L240.031 151.824V150.658L243.365 149.439H243.535Z" fill="black"/>
<path d="M269.072 183.469V192H267.607V184.641H263.816V192H262.352V183.469H269.072ZM272.119 186.879V194.438H270.707V185.66H272.008L272.119 186.879ZM276.25 188.771V188.895C276.25 189.355 276.195 189.783 276.086 190.178C275.98 190.568 275.822 190.91 275.611 191.203C275.404 191.492 275.148 191.717 274.844 191.877C274.539 192.037 274.188 192.117 273.789 192.117C273.395 192.117 273.049 192.045 272.752 191.9C272.459 191.752 272.211 191.543 272.008 191.273C271.805 191.004 271.641 190.688 271.516 190.324C271.395 189.957 271.309 189.555 271.258 189.117V188.643C271.309 188.178 271.395 187.756 271.516 187.377C271.641 186.998 271.805 186.672 272.008 186.398C272.211 186.125 272.459 185.914 272.752 185.766C273.045 185.617 273.387 185.543 273.777 185.543C274.176 185.543 274.529 185.621 274.838 185.777C275.146 185.93 275.406 186.148 275.617 186.434C275.828 186.715 275.986 187.055 276.092 187.453C276.197 187.848 276.25 188.287 276.25 188.771ZM274.838 188.895V188.771C274.838 188.479 274.811 188.207 274.756 187.957C274.701 187.703 274.615 187.48 274.498 187.289C274.381 187.098 274.23 186.949 274.047 186.844C273.867 186.734 273.65 186.68 273.396 186.68C273.146 186.68 272.932 186.723 272.752 186.809C272.572 186.891 272.422 187.006 272.301 187.154C272.18 187.303 272.086 187.477 272.02 187.676C271.953 187.871 271.906 188.084 271.879 188.314V189.451C271.926 189.732 272.006 189.99 272.119 190.225C272.232 190.459 272.393 190.646 272.6 190.787C272.811 190.924 273.08 190.992 273.408 190.992C273.662 190.992 273.879 190.938 274.059 190.828C274.238 190.719 274.385 190.568 274.498 190.377C274.615 190.182 274.701 189.957 274.756 189.703C274.811 189.449 274.838 189.18 274.838 188.895ZM277.182 188.9V188.766C277.182 188.309 277.248 187.885 277.381 187.494C277.514 187.1 277.705 186.758 277.955 186.469C278.209 186.176 278.518 185.949 278.881 185.789C279.248 185.625 279.662 185.543 280.123 185.543C280.588 185.543 281.002 185.625 281.365 185.789C281.732 185.949 282.043 186.176 282.297 186.469C282.551 186.758 282.744 187.1 282.877 187.494C283.01 187.885 283.076 188.309 283.076 188.766V188.9C283.076 189.357 283.01 189.781 282.877 190.172C282.744 190.562 282.551 190.904 282.297 191.197C282.043 191.486 281.734 191.713 281.371 191.877C281.008 192.037 280.596 192.117 280.135 192.117C279.67 192.117 279.254 192.037 278.887 191.877C278.523 191.713 278.215 191.486 277.961 191.197C277.707 190.904 277.514 190.562 277.381 190.172C277.248 189.781 277.182 189.357 277.182 188.9ZM278.594 188.766V188.9C278.594 189.186 278.623 189.455 278.682 189.709C278.74 189.963 278.832 190.186 278.957 190.377C279.082 190.568 279.242 190.719 279.438 190.828C279.633 190.938 279.865 190.992 280.135 190.992C280.396 190.992 280.623 190.938 280.814 190.828C281.01 190.719 281.17 190.568 281.295 190.377C281.42 190.186 281.512 189.963 281.57 189.709C281.633 189.455 281.664 189.186 281.664 188.9V188.766C281.664 188.484 281.633 188.219 281.57 187.969C281.512 187.715 281.418 187.49 281.289 187.295C281.164 187.1 281.004 186.947 280.809 186.838C280.617 186.725 280.389 186.668 280.123 186.668C279.857 186.668 279.627 186.725 279.432 186.838C279.24 186.947 279.082 187.1 278.957 187.295C278.832 187.49 278.74 187.715 278.682 187.969C278.623 188.219 278.594 188.484 278.594 188.766ZM288.027 190.289L289.914 185.66H291.139L288.508 192H287.547L284.922 185.66H286.146L288.027 190.289ZM285.783 185.66V192H284.371V185.66H285.783ZM290.271 192V185.66H291.689V192H290.271ZM248.125 199.66V200.785H244.996V199.66H248.125ZM245.33 199.66V206H243.918V199.66H245.33ZM249.232 199.66V206H247.814V199.66H249.232ZM254.986 199.66V200.785H251.893V199.66H254.986ZM256.094 199.66V206H254.682V199.66H256.094ZM251.547 199.66H252.941L252.771 202.795C252.748 203.26 252.701 203.67 252.631 204.025C252.564 204.377 252.475 204.68 252.361 204.934C252.248 205.184 252.109 205.387 251.945 205.543C251.781 205.699 251.59 205.814 251.371 205.889C251.152 205.963 250.906 206 250.633 206H250.193L250.188 204.84L250.41 204.822C250.555 204.811 250.68 204.773 250.785 204.711C250.891 204.645 250.98 204.551 251.055 204.43C251.133 204.309 251.195 204.152 251.242 203.961C251.293 203.77 251.332 203.543 251.359 203.281C251.391 203.02 251.414 202.715 251.43 202.367L251.547 199.66ZM257.324 202.9V202.766C257.324 202.309 257.391 201.885 257.523 201.494C257.656 201.1 257.848 200.758 258.098 200.469C258.352 200.176 258.66 199.949 259.023 199.789C259.391 199.625 259.805 199.543 260.266 199.543C260.73 199.543 261.145 199.625 261.508 199.789C261.875 199.949 262.186 200.176 262.439 200.469C262.693 200.758 262.887 201.1 263.02 201.494C263.152 201.885 263.219 202.309 263.219 202.766V202.9C263.219 203.357 263.152 203.781 263.02 204.172C262.887 204.562 262.693 204.904 262.439 205.197C262.186 205.486 261.877 205.713 261.514 205.877C261.15 206.037 260.738 206.117 260.277 206.117C259.812 206.117 259.396 206.037 259.029 205.877C258.666 205.713 258.357 205.486 258.104 205.197C257.85 204.904 257.656 204.562 257.523 204.172C257.391 203.781 257.324 203.357 257.324 202.9ZM258.736 202.766V202.9C258.736 203.186 258.766 203.455 258.824 203.709C258.883 203.963 258.975 204.186 259.1 204.377C259.225 204.568 259.385 204.719 259.58 204.828C259.775 204.938 260.008 204.992 260.277 204.992C260.539 204.992 260.766 204.938 260.957 204.828C261.152 204.719 261.312 204.568 261.438 204.377C261.562 204.186 261.654 203.963 261.713 203.709C261.775 203.455 261.807 203.186 261.807 202.9V202.766C261.807 202.484 261.775 202.219 261.713 201.969C261.654 201.715 261.561 201.49 261.432 201.295C261.307 201.1 261.146 200.947 260.951 200.838C260.76 200.725 260.531 200.668 260.266 200.668C260 200.668 259.77 200.725 259.574 200.838C259.383 200.947 259.225 201.1 259.1 201.295C258.975 201.49 258.883 201.715 258.824 201.969C258.766 202.219 258.736 202.484 258.736 202.766ZM273.771 204.881L273.66 207.881H272.365V206H271.604V204.881H273.771ZM264.408 199.66H265.82V204.875H267.836V199.66H269.254V204.875H271.264V199.66H272.676V206H264.408V199.66ZM278.395 204.729V201.705C278.395 201.479 278.354 201.283 278.271 201.119C278.189 200.955 278.064 200.828 277.896 200.738C277.732 200.648 277.525 200.604 277.275 200.604C277.045 200.604 276.846 200.643 276.678 200.721C276.51 200.799 276.379 200.904 276.285 201.037C276.191 201.17 276.145 201.32 276.145 201.488H274.738C274.738 201.238 274.799 200.996 274.92 200.762C275.041 200.527 275.217 200.318 275.447 200.135C275.678 199.951 275.953 199.807 276.273 199.701C276.594 199.596 276.953 199.543 277.352 199.543C277.828 199.543 278.25 199.623 278.617 199.783C278.988 199.943 279.279 200.186 279.49 200.51C279.705 200.83 279.812 201.232 279.812 201.717V204.535C279.812 204.824 279.832 205.084 279.871 205.314C279.914 205.541 279.975 205.738 280.053 205.906V206H278.605C278.539 205.848 278.486 205.654 278.447 205.42C278.412 205.182 278.395 204.951 278.395 204.729ZM278.6 202.145L278.611 203.018H277.598C277.336 203.018 277.105 203.043 276.906 203.094C276.707 203.141 276.541 203.211 276.408 203.305C276.275 203.398 276.176 203.512 276.109 203.645C276.043 203.777 276.01 203.928 276.01 204.096C276.01 204.264 276.049 204.418 276.127 204.559C276.205 204.695 276.318 204.803 276.467 204.881C276.619 204.959 276.803 204.998 277.018 204.998C277.307 204.998 277.559 204.939 277.773 204.822C277.992 204.701 278.164 204.555 278.289 204.383C278.414 204.207 278.48 204.041 278.488 203.885L278.945 204.512C278.898 204.672 278.818 204.844 278.705 205.027C278.592 205.211 278.443 205.387 278.26 205.555C278.08 205.719 277.863 205.854 277.609 205.959C277.359 206.064 277.07 206.117 276.742 206.117C276.328 206.117 275.959 206.035 275.635 205.871C275.311 205.703 275.057 205.479 274.873 205.197C274.689 204.912 274.598 204.59 274.598 204.23C274.598 203.895 274.66 203.598 274.785 203.34C274.914 203.078 275.102 202.859 275.348 202.684C275.598 202.508 275.902 202.375 276.262 202.285C276.621 202.191 277.031 202.145 277.492 202.145H278.6ZM282.438 199.66H283.85L283.779 201.893C283.76 202.541 283.686 203.098 283.557 203.562C283.428 204.027 283.26 204.42 283.053 204.74C282.846 205.057 282.611 205.316 282.35 205.52C282.092 205.723 281.82 205.883 281.535 206H281.119V204.887L281.318 204.875C281.486 204.695 281.631 204.516 281.752 204.336C281.877 204.152 281.982 203.951 282.068 203.732C282.154 203.51 282.221 203.25 282.268 202.953C282.318 202.656 282.352 202.303 282.367 201.893L282.438 199.66ZM282.812 199.66H286.832V206H285.426V200.855H282.812V199.66ZM280.797 204.875H287.699V207.887H286.287V206H282.227V207.887H280.791L280.797 204.875ZM290.195 199.66V206H288.783V199.66H290.195ZM294.332 199.66L291.479 203.475H289.867L289.68 202.197H290.857L292.568 199.66H294.332ZM292.68 206L290.77 203.234L291.883 202.432L294.537 206H292.68ZM298.879 204.729V201.705C298.879 201.479 298.838 201.283 298.756 201.119C298.674 200.955 298.549 200.828 298.381 200.738C298.217 200.648 298.01 200.604 297.76 200.604C297.529 200.604 297.33 200.643 297.162 200.721C296.994 200.799 296.863 200.904 296.77 201.037C296.676 201.17 296.629 201.32 296.629 201.488H295.223C295.223 201.238 295.283 200.996 295.404 200.762C295.525 200.527 295.701 200.318 295.932 200.135C296.162 199.951 296.438 199.807 296.758 199.701C297.078 199.596 297.438 199.543 297.836 199.543C298.312 199.543 298.734 199.623 299.102 199.783C299.473 199.943 299.764 200.186 299.975 200.51C300.189 200.83 300.297 201.232 300.297 201.717V204.535C300.297 204.824 300.316 205.084 300.355 205.314C300.398 205.541 300.459 205.738 300.537 205.906V206H299.09C299.023 205.848 298.971 205.654 298.932 205.42C298.896 205.182 298.879 204.951 298.879 204.729ZM299.084 202.145L299.096 203.018H298.082C297.82 203.018 297.59 203.043 297.391 203.094C297.191 203.141 297.025 203.211 296.893 203.305C296.76 203.398 296.66 203.512 296.594 203.645C296.527 203.777 296.494 203.928 296.494 204.096C296.494 204.264 296.533 204.418 296.611 204.559C296.689 204.695 296.803 204.803 296.951 204.881C297.104 204.959 297.287 204.998 297.502 204.998C297.791 204.998 298.043 204.939 298.258 204.822C298.477 204.701 298.648 204.555 298.773 204.383C298.898 204.207 298.965 204.041 298.973 203.885L299.43 204.512C299.383 204.672 299.303 204.844 299.189 205.027C299.076 205.211 298.928 205.387 298.744 205.555C298.564 205.719 298.348 205.854 298.094 205.959C297.844 206.064 297.555 206.117 297.227 206.117C296.812 206.117 296.443 206.035 296.119 205.871C295.795 205.703 295.541 205.479 295.357 205.197C295.174 204.912 295.082 204.59 295.082 204.23C295.082 203.895 295.145 203.598 295.27 203.34C295.398 203.078 295.586 202.859 295.832 202.684C296.082 202.508 296.387 202.375 296.746 202.285C297.105 202.191 297.516 202.145 297.977 202.145H299.084ZM310.398 204.875V206H304.68V205.033L307.457 202.004C307.762 201.66 308.002 201.363 308.178 201.113C308.354 200.863 308.477 200.639 308.547 200.439C308.621 200.236 308.658 200.039 308.658 199.848C308.658 199.578 308.607 199.342 308.506 199.139C308.408 198.932 308.264 198.77 308.072 198.652C307.881 198.531 307.648 198.471 307.375 198.471C307.059 198.471 306.793 198.539 306.578 198.676C306.363 198.812 306.201 199.002 306.092 199.244C305.982 199.482 305.928 199.756 305.928 200.064H304.516C304.516 199.568 304.629 199.115 304.855 198.705C305.082 198.291 305.41 197.963 305.84 197.721C306.27 197.475 306.787 197.352 307.393 197.352C307.963 197.352 308.447 197.447 308.846 197.639C309.244 197.83 309.547 198.102 309.754 198.453C309.965 198.805 310.07 199.221 310.07 199.701C310.07 199.967 310.027 200.23 309.941 200.492C309.855 200.754 309.732 201.016 309.572 201.277C309.416 201.535 309.23 201.795 309.016 202.057C308.801 202.314 308.564 202.576 308.307 202.842L306.461 204.875H310.398Z" fill="black"/>
<path d="M199.072 218.469V227H197.607V219.641H193.816V227H192.352V218.469H199.072ZM202.119 221.879V229.438H200.707V220.66H202.008L202.119 221.879ZM206.25 223.771V223.895C206.25 224.355 206.195 224.783 206.086 225.178C205.98 225.568 205.822 225.91 205.611 226.203C205.404 226.492 205.148 226.717 204.844 226.877C204.539 227.037 204.188 227.117 203.789 227.117C203.395 227.117 203.049 227.045 202.752 226.9C202.459 226.752 202.211 226.543 202.008 226.273C201.805 226.004 201.641 225.688 201.516 225.324C201.395 224.957 201.309 224.555 201.258 224.117V223.643C201.309 223.178 201.395 222.756 201.516 222.377C201.641 221.998 201.805 221.672 202.008 221.398C202.211 221.125 202.459 220.914 202.752 220.766C203.045 220.617 203.387 220.543 203.777 220.543C204.176 220.543 204.529 220.621 204.838 220.777C205.146 220.93 205.406 221.148 205.617 221.434C205.828 221.715 205.986 222.055 206.092 222.453C206.197 222.848 206.25 223.287 206.25 223.771ZM204.838 223.895V223.771C204.838 223.479 204.811 223.207 204.756 222.957C204.701 222.703 204.615 222.48 204.498 222.289C204.381 222.098 204.23 221.949 204.047 221.844C203.867 221.734 203.65 221.68 203.396 221.68C203.146 221.68 202.932 221.723 202.752 221.809C202.572 221.891 202.422 222.006 202.301 222.154C202.18 222.303 202.086 222.477 202.02 222.676C201.953 222.871 201.906 223.084 201.879 223.314V224.451C201.926 224.732 202.006 224.99 202.119 225.225C202.232 225.459 202.393 225.646 202.6 225.787C202.811 225.924 203.08 225.992 203.408 225.992C203.662 225.992 203.879 225.938 204.059 225.828C204.238 225.719 204.385 225.568 204.498 225.377C204.615 225.182 204.701 224.957 204.756 224.703C204.811 224.449 204.838 224.18 204.838 223.895ZM207.182 223.9V223.766C207.182 223.309 207.248 222.885 207.381 222.494C207.514 222.1 207.705 221.758 207.955 221.469C208.209 221.176 208.518 220.949 208.881 220.789C209.248 220.625 209.662 220.543 210.123 220.543C210.588 220.543 211.002 220.625 211.365 220.789C211.732 220.949 212.043 221.176 212.297 221.469C212.551 221.758 212.744 222.1 212.877 222.494C213.01 222.885 213.076 223.309 213.076 223.766V223.9C213.076 224.357 213.01 224.781 212.877 225.172C212.744 225.562 212.551 225.904 212.297 226.197C212.043 226.486 211.734 226.713 211.371 226.877C211.008 227.037 210.596 227.117 210.135 227.117C209.67 227.117 209.254 227.037 208.887 226.877C208.523 226.713 208.215 226.486 207.961 226.197C207.707 225.904 207.514 225.562 207.381 225.172C207.248 224.781 207.182 224.357 207.182 223.9ZM208.594 223.766V223.9C208.594 224.186 208.623 224.455 208.682 224.709C208.74 224.963 208.832 225.186 208.957 225.377C209.082 225.568 209.242 225.719 209.438 225.828C209.633 225.938 209.865 225.992 210.135 225.992C210.396 225.992 210.623 225.938 210.814 225.828C211.01 225.719 211.17 225.568 211.295 225.377C211.42 225.186 211.512 224.963 211.57 224.709C211.633 224.455 211.664 224.186 211.664 223.9V223.766C211.664 223.484 211.633 223.219 211.57 222.969C211.512 222.715 211.418 222.49 211.289 222.295C211.164 222.1 211.004 221.947 210.809 221.838C210.617 221.725 210.389 221.668 210.123 221.668C209.857 221.668 209.627 221.725 209.432 221.838C209.24 221.947 209.082 222.1 208.957 222.295C208.832 222.49 208.74 222.715 208.682 222.969C208.623 223.219 208.594 223.484 208.594 223.766ZM218.027 225.289L219.914 220.66H221.139L218.508 227H217.547L214.922 220.66H216.146L218.027 225.289ZM215.783 220.66V227H214.371V220.66H215.783ZM220.271 227V220.66H221.689V227H220.271ZM178.125 234.66V235.785H174.996V234.66H178.125ZM175.33 234.66V241H173.918V234.66H175.33ZM179.232 234.66V241H177.814V234.66H179.232ZM184.986 234.66V235.785H181.893V234.66H184.986ZM186.094 234.66V241H184.682V234.66H186.094ZM181.547 234.66H182.941L182.771 237.795C182.748 238.26 182.701 238.67 182.631 239.025C182.564 239.377 182.475 239.68 182.361 239.934C182.248 240.184 182.109 240.387 181.945 240.543C181.781 240.699 181.59 240.814 181.371 240.889C181.152 240.963 180.906 241 180.633 241H180.193L180.188 239.84L180.41 239.822C180.555 239.811 180.68 239.773 180.785 239.711C180.891 239.645 180.98 239.551 181.055 239.43C181.133 239.309 181.195 239.152 181.242 238.961C181.293 238.77 181.332 238.543 181.359 238.281C181.391 238.02 181.414 237.715 181.43 237.367L181.547 234.66ZM187.324 237.9V237.766C187.324 237.309 187.391 236.885 187.523 236.494C187.656 236.1 187.848 235.758 188.098 235.469C188.352 235.176 188.66 234.949 189.023 234.789C189.391 234.625 189.805 234.543 190.266 234.543C190.73 234.543 191.145 234.625 191.508 234.789C191.875 234.949 192.186 235.176 192.439 235.469C192.693 235.758 192.887 236.1 193.02 236.494C193.152 236.885 193.219 237.309 193.219 237.766V237.9C193.219 238.357 193.152 238.781 193.02 239.172C192.887 239.562 192.693 239.904 192.439 240.197C192.186 240.486 191.877 240.713 191.514 240.877C191.15 241.037 190.738 241.117 190.277 241.117C189.812 241.117 189.396 241.037 189.029 240.877C188.666 240.713 188.357 240.486 188.104 240.197C187.85 239.904 187.656 239.562 187.523 239.172C187.391 238.781 187.324 238.357 187.324 237.9ZM188.736 237.766V237.9C188.736 238.186 188.766 238.455 188.824 238.709C188.883 238.963 188.975 239.186 189.1 239.377C189.225 239.568 189.385 239.719 189.58 239.828C189.775 239.938 190.008 239.992 190.277 239.992C190.539 239.992 190.766 239.938 190.957 239.828C191.152 239.719 191.312 239.568 191.438 239.377C191.562 239.186 191.654 238.963 191.713 238.709C191.775 238.455 191.807 238.186 191.807 237.9V237.766C191.807 237.484 191.775 237.219 191.713 236.969C191.654 236.715 191.561 236.49 191.432 236.295C191.307 236.1 191.146 235.947 190.951 235.838C190.76 235.725 190.531 235.668 190.266 235.668C190 235.668 189.77 235.725 189.574 235.838C189.383 235.947 189.225 236.1 189.1 236.295C188.975 236.49 188.883 236.715 188.824 236.969C188.766 237.219 188.736 237.484 188.736 237.766ZM203.771 239.881L203.66 242.881H202.365V241H201.604V239.881H203.771ZM194.408 234.66H195.82V239.875H197.836V234.66H199.254V239.875H201.264V234.66H202.676V241H194.408V234.66ZM208.395 239.729V236.705C208.395 236.479 208.354 236.283 208.271 236.119C208.189 235.955 208.064 235.828 207.896 235.738C207.732 235.648 207.525 235.604 207.275 235.604C207.045 235.604 206.846 235.643 206.678 235.721C206.51 235.799 206.379 235.904 206.285 236.037C206.191 236.17 206.145 236.32 206.145 236.488H204.738C204.738 236.238 204.799 235.996 204.92 235.762C205.041 235.527 205.217 235.318 205.447 235.135C205.678 234.951 205.953 234.807 206.273 234.701C206.594 234.596 206.953 234.543 207.352 234.543C207.828 234.543 208.25 234.623 208.617 234.783C208.988 234.943 209.279 235.186 209.49 235.51C209.705 235.83 209.812 236.232 209.812 236.717V239.535C209.812 239.824 209.832 240.084 209.871 240.314C209.914 240.541 209.975 240.738 210.053 240.906V241H208.605C208.539 240.848 208.486 240.654 208.447 240.42C208.412 240.182 208.395 239.951 208.395 239.729ZM208.6 237.145L208.611 238.018H207.598C207.336 238.018 207.105 238.043 206.906 238.094C206.707 238.141 206.541 238.211 206.408 238.305C206.275 238.398 206.176 238.512 206.109 238.645C206.043 238.777 206.01 238.928 206.01 239.096C206.01 239.264 206.049 239.418 206.127 239.559C206.205 239.695 206.318 239.803 206.467 239.881C206.619 239.959 206.803 239.998 207.018 239.998C207.307 239.998 207.559 239.939 207.773 239.822C207.992 239.701 208.164 239.555 208.289 239.383C208.414 239.207 208.48 239.041 208.488 238.885L208.945 239.512C208.898 239.672 208.818 239.844 208.705 240.027C208.592 240.211 208.443 240.387 208.26 240.555C208.08 240.719 207.863 240.854 207.609 240.959C207.359 241.064 207.07 241.117 206.742 241.117C206.328 241.117 205.959 241.035 205.635 240.871C205.311 240.703 205.057 240.479 204.873 240.197C204.689 239.912 204.598 239.59 204.598 239.23C204.598 238.895 204.66 238.598 204.785 238.34C204.914 238.078 205.102 237.859 205.348 237.684C205.598 237.508 205.902 237.375 206.262 237.285C206.621 237.191 207.031 237.145 207.492 237.145H208.6ZM212.438 234.66H213.85L213.779 236.893C213.76 237.541 213.686 238.098 213.557 238.562C213.428 239.027 213.26 239.42 213.053 239.74C212.846 240.057 212.611 240.316 212.35 240.52C212.092 240.723 211.82 240.883 211.535 241H211.119V239.887L211.318 239.875C211.486 239.695 211.631 239.516 211.752 239.336C211.877 239.152 211.982 238.951 212.068 238.732C212.154 238.51 212.221 238.25 212.268 237.953C212.318 237.656 212.352 237.303 212.367 236.893L212.438 234.66ZM212.812 234.66H216.832V241H215.426V235.855H212.812V234.66ZM210.797 239.875H217.699V242.887H216.287V241H212.227V242.887H210.791L210.797 239.875ZM220.195 234.66V241H218.783V234.66H220.195ZM224.332 234.66L221.479 238.475H219.867L219.68 237.197H220.857L222.568 234.66H224.332ZM222.68 241L220.77 238.234L221.883 237.432L224.537 241H222.68ZM228.879 239.729V236.705C228.879 236.479 228.838 236.283 228.756 236.119C228.674 235.955 228.549 235.828 228.381 235.738C228.217 235.648 228.01 235.604 227.76 235.604C227.529 235.604 227.33 235.643 227.162 235.721C226.994 235.799 226.863 235.904 226.77 236.037C226.676 236.17 226.629 236.32 226.629 236.488H225.223C225.223 236.238 225.283 235.996 225.404 235.762C225.525 235.527 225.701 235.318 225.932 235.135C226.162 234.951 226.438 234.807 226.758 234.701C227.078 234.596 227.438 234.543 227.836 234.543C228.312 234.543 228.734 234.623 229.102 234.783C229.473 234.943 229.764 235.186 229.975 235.51C230.189 235.83 230.297 236.232 230.297 236.717V239.535C230.297 239.824 230.316 240.084 230.355 240.314C230.398 240.541 230.459 240.738 230.537 240.906V241H229.09C229.023 240.848 228.971 240.654 228.932 240.42C228.896 240.182 228.879 239.951 228.879 239.729ZM229.084 237.145L229.096 238.018H228.082C227.82 238.018 227.59 238.043 227.391 238.094C227.191 238.141 227.025 238.211 226.893 238.305C226.76 238.398 226.66 238.512 226.594 238.645C226.527 238.777 226.494 238.928 226.494 239.096C226.494 239.264 226.533 239.418 226.611 239.559C226.689 239.695 226.803 239.803 226.951 239.881C227.104 239.959 227.287 239.998 227.502 239.998C227.791 239.998 228.043 239.939 228.258 239.822C228.477 239.701 228.648 239.555 228.773 239.383C228.898 239.207 228.965 239.041 228.973 238.885L229.43 239.512C229.383 239.672 229.303 239.844 229.189 240.027C229.076 240.211 228.928 240.387 228.744 240.555C228.564 240.719 228.348 240.854 228.094 240.959C227.844 241.064 227.555 241.117 227.227 241.117C226.812 241.117 226.443 241.035 226.119 240.871C225.795 240.703 225.541 240.479 225.357 240.197C225.174 239.912 225.082 239.59 225.082 239.23C225.082 238.895 225.145 238.598 225.27 238.34C225.398 238.078 225.586 237.859 225.832 237.684C226.082 237.508 226.387 237.375 226.746 237.285C227.105 237.191 227.516 237.145 227.977 237.145H229.084ZM236.338 236.096H237.182C237.51 236.096 237.781 236.039 237.996 235.926C238.215 235.812 238.377 235.656 238.482 235.457C238.588 235.258 238.641 235.029 238.641 234.771C238.641 234.502 238.592 234.271 238.494 234.08C238.4 233.885 238.256 233.734 238.061 233.629C237.869 233.523 237.625 233.471 237.328 233.471C237.078 233.471 236.852 233.521 236.648 233.623C236.449 233.721 236.291 233.861 236.174 234.045C236.057 234.225 235.998 234.439 235.998 234.689H234.58C234.58 234.236 234.699 233.834 234.938 233.482C235.176 233.131 235.5 232.855 235.91 232.656C236.324 232.453 236.789 232.352 237.305 232.352C237.855 232.352 238.336 232.443 238.746 232.627C239.16 232.807 239.482 233.076 239.713 233.436C239.943 233.795 240.059 234.24 240.059 234.771C240.059 235.014 240.002 235.26 239.889 235.51C239.775 235.76 239.607 235.988 239.385 236.195C239.162 236.398 238.885 236.564 238.553 236.693C238.221 236.818 237.836 236.881 237.398 236.881H236.338V236.096ZM236.338 237.197V236.424H237.398C237.898 236.424 238.324 236.482 238.676 236.6C239.031 236.717 239.32 236.879 239.543 237.086C239.766 237.289 239.928 237.521 240.029 237.783C240.135 238.045 240.188 238.322 240.188 238.615C240.188 239.014 240.115 239.369 239.971 239.682C239.83 239.99 239.629 240.252 239.367 240.467C239.105 240.682 238.799 240.844 238.447 240.953C238.1 241.062 237.721 241.117 237.311 241.117C236.943 241.117 236.592 241.066 236.256 240.965C235.92 240.863 235.619 240.713 235.354 240.514C235.088 240.311 234.877 240.059 234.721 239.758C234.568 239.453 234.492 239.102 234.492 238.703H235.904C235.904 238.957 235.963 239.182 236.08 239.377C236.201 239.568 236.369 239.719 236.584 239.828C236.803 239.938 237.053 239.992 237.334 239.992C237.631 239.992 237.887 239.939 238.102 239.834C238.316 239.729 238.48 239.572 238.594 239.365C238.711 239.158 238.77 238.908 238.77 238.615C238.77 238.283 238.705 238.014 238.576 237.807C238.447 237.6 238.264 237.447 238.025 237.35C237.787 237.248 237.506 237.197 237.182 237.197H236.338Z" fill="black"/>
<path d="M37.0723 11.4688V20H35.6074V12.6406H31.8164V20H30.3516V11.4688H37.0723ZM40.1191 14.8789V22.4375H38.707V13.6602H40.0078L40.1191 14.8789ZM44.25 16.7715V16.8945C44.25 17.3555 44.1953 17.7832 44.0859 18.1777C43.9805 18.5684 43.8223 18.9102 43.6113 19.2031C43.4043 19.4922 43.1484 19.7168 42.8438 19.877C42.5391 20.0371 42.1875 20.1172 41.7891 20.1172C41.3945 20.1172 41.0488 20.0449 40.752 19.9004C40.459 19.752 40.2109 19.543 40.0078 19.2734C39.8047 19.0039 39.6406 18.6875 39.5156 18.3242C39.3945 17.957 39.3086 17.5547 39.2578 17.1172V16.6426C39.3086 16.1777 39.3945 15.7559 39.5156 15.377C39.6406 14.998 39.8047 14.6719 40.0078 14.3984C40.2109 14.125 40.459 13.9141 40.752 13.7656C41.0449 13.6172 41.3867 13.543 41.7773 13.543C42.1758 13.543 42.5293 13.6211 42.8379 13.7773C43.1465 13.9297 43.4062 14.1484 43.6172 14.4336C43.8281 14.7148 43.9863 15.0547 44.0918 15.4531C44.1973 15.8477 44.25 16.2871 44.25 16.7715ZM42.8379 16.8945V16.7715C42.8379 16.4785 42.8105 16.207 42.7559 15.957C42.7012 15.7031 42.6152 15.4805 42.498 15.2891C42.3809 15.0977 42.2305 14.9492 42.0469 14.8438C41.8672 14.7344 41.6504 14.6797 41.3965 14.6797C41.1465 14.6797 40.9316 14.7227 40.752 14.8086C40.5723 14.8906 40.4219 15.0059 40.3008 15.1543C40.1797 15.3027 40.0859 15.4766 40.0195 15.6758C39.9531 15.8711 39.9062 16.084 39.8789 16.3145V17.4512C39.9258 17.7324 40.0059 17.9902 40.1191 18.2246C40.2324 18.459 40.3926 18.6465 40.5996 18.7871C40.8105 18.9238 41.0801 18.9922 41.4082 18.9922C41.6621 18.9922 41.8789 18.9375 42.0586 18.8281C42.2383 18.7188 42.3848 18.5684 42.498 18.377C42.6152 18.1816 42.7012 17.957 42.7559 17.7031C42.8105 17.4492 42.8379 17.1797 42.8379 16.8945ZM45.1816 16.9004V16.7656C45.1816 16.3086 45.248 15.8848 45.3809 15.4941C45.5137 15.0996 45.7051 14.7578 45.9551 14.4688C46.209 14.1758 46.5176 13.9492 46.8809 13.7891C47.248 13.625 47.6621 13.543 48.123 13.543C48.5879 13.543 49.002 13.625 49.3652 13.7891C49.7324 13.9492 50.043 14.1758 50.2969 14.4688C50.5508 14.7578 50.7441 15.0996 50.877 15.4941C51.0098 15.8848 51.0762 16.3086 51.0762 16.7656V16.9004C51.0762 17.3574 51.0098 17.7812 50.877 18.1719C50.7441 18.5625 50.5508 18.9043 50.2969 19.1973C50.043 19.4863 49.7344 19.7129 49.3711 19.877C49.0078 20.0371 48.5957 20.1172 48.1348 20.1172C47.6699 20.1172 47.2539 20.0371 46.8867 19.877C46.5234 19.7129 46.2148 19.4863 45.9609 19.1973C45.707 18.9043 45.5137 18.5625 45.3809 18.1719C45.248 17.7812 45.1816 17.3574 45.1816 16.9004ZM46.5938 16.7656V16.9004C46.5938 17.1855 46.623 17.4551 46.6816 17.709C46.7402 17.9629 46.832 18.1855 46.957 18.377C47.082 18.5684 47.2422 18.7188 47.4375 18.8281C47.6328 18.9375 47.8652 18.9922 48.1348 18.9922C48.3965 18.9922 48.623 18.9375 48.8145 18.8281C49.0098 18.7188 49.1699 18.5684 49.2949 18.377C49.4199 18.1855 49.5117 17.9629 49.5703 17.709C49.6328 17.4551 49.6641 17.1855 49.6641 16.9004V16.7656C49.6641 16.4844 49.6328 16.2188 49.5703 15.9688C49.5117 15.7148 49.418 15.4902 49.2891 15.2949C49.1641 15.0996 49.0039 14.9473 48.8086 14.8379C48.6172 14.7246 48.3887 14.668 48.123 14.668C47.8574 14.668 47.627 14.7246 47.4316 14.8379C47.2402 14.9473 47.082 15.0996 46.957 15.2949C46.832 15.4902 46.7402 15.7148 46.6816 15.9688C46.623 16.2188 46.5938 16.4844 46.5938 16.7656ZM56.0273 18.2891L57.9141 13.6602H59.1387L56.5078 20H55.5469L52.9219 13.6602H54.1465L56.0273 18.2891ZM53.7832 13.6602V20H52.3711V13.6602H53.7832ZM58.2715 20V13.6602H59.6895V20H58.2715ZM16.125 27.6602V28.7852H12.9961V27.6602H16.125ZM13.3301 27.6602V34H11.918V27.6602H13.3301ZM17.2324 27.6602V34H15.8145V27.6602H17.2324ZM22.9863 27.6602V28.7852H19.8926V27.6602H22.9863ZM24.0938 27.6602V34H22.6816V27.6602H24.0938ZM19.5469 27.6602H20.9414L20.7715 30.7949C20.748 31.2598 20.7012 31.6699 20.6309 32.0254C20.5645 32.377 20.4746 32.6797 20.3613 32.9336C20.248 33.1836 20.1094 33.3867 19.9453 33.543C19.7812 33.6992 19.5898 33.8145 19.3711 33.8887C19.1523 33.9629 18.9062 34 18.6328 34H18.1934L18.1875 32.8398L18.4102 32.8223C18.5547 32.8105 18.6797 32.7734 18.7852 32.7109C18.8906 32.6445 18.9805 32.5508 19.0547 32.4297C19.1328 32.3086 19.1953 32.1523 19.2422 31.9609C19.293 31.7695 19.332 31.543 19.3594 31.2812C19.3906 31.0195 19.4141 30.7148 19.4297 30.3672L19.5469 27.6602ZM25.3242 30.9004V30.7656C25.3242 30.3086 25.3906 29.8848 25.5234 29.4941C25.6562 29.0996 25.8477 28.7578 26.0977 28.4688C26.3516 28.1758 26.6602 27.9492 27.0234 27.7891C27.3906 27.625 27.8047 27.543 28.2656 27.543C28.7305 27.543 29.1445 27.625 29.5078 27.7891C29.875 27.9492 30.1855 28.1758 30.4395 28.4688C30.6934 28.7578 30.8867 29.0996 31.0195 29.4941C31.1523 29.8848 31.2188 30.3086 31.2188 30.7656V30.9004C31.2188 31.3574 31.1523 31.7812 31.0195 32.1719C30.8867 32.5625 30.6934 32.9043 30.4395 33.1973C30.1855 33.4863 29.877 33.7129 29.5137 33.877C29.1504 34.0371 28.7383 34.1172 28.2773 34.1172C27.8125 34.1172 27.3965 34.0371 27.0293 33.877C26.666 33.7129 26.3574 33.4863 26.1035 33.1973C25.8496 32.9043 25.6562 32.5625 25.5234 32.1719C25.3906 31.7812 25.3242 31.3574 25.3242 30.9004ZM26.7363 30.7656V30.9004C26.7363 31.1855 26.7656 31.4551 26.8242 31.709C26.8828 31.9629 26.9746 32.1855 27.0996 32.377C27.2246 32.5684 27.3848 32.7188 27.5801 32.8281C27.7754 32.9375 28.0078 32.9922 28.2773 32.9922C28.5391 32.9922 28.7656 32.9375 28.957 32.8281C29.1523 32.7188 29.3125 32.5684 29.4375 32.377C29.5625 32.1855 29.6543 31.9629 29.7129 31.709C29.7754 31.4551 29.8066 31.1855 29.8066 30.9004V30.7656C29.8066 30.4844 29.7754 30.2188 29.7129 29.9688C29.6543 29.7148 29.5605 29.4902 29.4316 29.2949C29.3066 29.0996 29.1465 28.9473 28.9512 28.8379C28.7598 28.7246 28.5312 28.668 28.2656 28.668C28 28.668 27.7695 28.7246 27.5742 28.8379C27.3828 28.9473 27.2246 29.0996 27.0996 29.2949C26.9746 29.4902 26.8828 29.7148 26.8242 29.9688C26.7656 30.2188 26.7363 30.4844 26.7363 30.7656ZM41.7715 32.8809L41.6602 35.8809H40.3652V34H39.6035V32.8809H41.7715ZM32.4082 27.6602H33.8203V32.875H35.8359V27.6602H37.2539V32.875H39.2637V27.6602H40.6758V34H32.4082V27.6602ZM46.3945 32.7285V29.7051C46.3945 29.4785 46.3535 29.2832 46.2715 29.1191C46.1895 28.9551 46.0645 28.8281 45.8965 28.7383C45.7324 28.6484 45.5254 28.6035 45.2754 28.6035C45.0449 28.6035 44.8457 28.6426 44.6777 28.7207C44.5098 28.7988 44.3789 28.9043 44.2852 29.0371C44.1914 29.1699 44.1445 29.3203 44.1445 29.4883H42.7383C42.7383 29.2383 42.7988 28.9961 42.9199 28.7617C43.041 28.5273 43.2168 28.3184 43.4473 28.1348C43.6777 27.9512 43.9531 27.8066 44.2734 27.7012C44.5938 27.5957 44.9531 27.543 45.3516 27.543C45.8281 27.543 46.25 27.623 46.6172 27.7832C46.9883 27.9434 47.2793 28.1855 47.4902 28.5098C47.7051 28.8301 47.8125 29.2324 47.8125 29.7168V32.5352C47.8125 32.8242 47.832 33.084 47.8711 33.3145C47.9141 33.541 47.9746 33.7383 48.0527 33.9062V34H46.6055C46.5391 33.8477 46.4863 33.6543 46.4473 33.4199C46.4121 33.1816 46.3945 32.9512 46.3945 32.7285ZM46.5996 30.1445L46.6113 31.0176H45.5977C45.3359 31.0176 45.1055 31.043 44.9062 31.0938C44.707 31.1406 44.541 31.2109 44.4082 31.3047C44.2754 31.3984 44.1758 31.5117 44.1094 31.6445C44.043 31.7773 44.0098 31.9277 44.0098 32.0957C44.0098 32.2637 44.0488 32.418 44.127 32.5586C44.2051 32.6953 44.3184 32.8027 44.4668 32.8809C44.6191 32.959 44.8027 32.998 45.0176 32.998C45.3066 32.998 45.5586 32.9395 45.7734 32.8223C45.9922 32.7012 46.1641 32.5547 46.2891 32.3828C46.4141 32.207 46.4805 32.041 46.4883 31.8848L46.9453 32.5117C46.8984 32.6719 46.8184 32.8438 46.7051 33.0273C46.5918 33.2109 46.4434 33.3867 46.2598 33.5547C46.0801 33.7188 45.8633 33.8535 45.6094 33.959C45.3594 34.0645 45.0703 34.1172 44.7422 34.1172C44.3281 34.1172 43.959 34.0352 43.6348 33.8711C43.3105 33.7031 43.0566 33.4785 42.873 33.1973C42.6895 32.9121 42.5977 32.5898 42.5977 32.2305C42.5977 31.8945 42.6602 31.5977 42.7852 31.3398C42.9141 31.0781 43.1016 30.8594 43.3477 30.6836C43.5977 30.5078 43.9023 30.375 44.2617 30.2852C44.6211 30.1914 45.0312 30.1445 45.4922 30.1445H46.5996ZM50.4375 27.6602H51.8496L51.7793 29.8926C51.7598 30.541 51.6855 31.0977 51.5566 31.5625C51.4277 32.0273 51.2598 32.4199 51.0527 32.7402C50.8457 33.0566 50.6113 33.3164 50.3496 33.5195C50.0918 33.7227 49.8203 33.8828 49.5352 34H49.1191V32.8867L49.3184 32.875C49.4863 32.6953 49.6309 32.5156 49.752 32.3359C49.877 32.1523 49.9824 31.9512 50.0684 31.7324C50.1543 31.5098 50.2207 31.25 50.2676 30.9531C50.3184 30.6562 50.3516 30.3027 50.3672 29.8926L50.4375 27.6602ZM50.8125 27.6602H54.832V34H53.4258V28.8555H50.8125V27.6602ZM48.7969 32.875H55.6992V35.8867H54.2871V34H50.2266V35.8867H48.791L48.7969 32.875ZM58.1953 27.6602V34H56.7832V27.6602H58.1953ZM62.332 27.6602L59.4785 31.4746H57.8672L57.6797 30.1973H58.8574L60.5684 27.6602H62.332ZM60.6797 34L58.7695 31.2344L59.8828 30.4316L62.5371 34H60.6797ZM66.8789 32.7285V29.7051C66.8789 29.4785 66.8379 29.2832 66.7559 29.1191C66.6738 28.9551 66.5488 28.8281 66.3809 28.7383C66.2168 28.6484 66.0098 28.6035 65.7598 28.6035C65.5293 28.6035 65.3301 28.6426 65.1621 28.7207C64.9941 28.7988 64.8633 28.9043 64.7695 29.0371C64.6758 29.1699 64.6289 29.3203 64.6289 29.4883H63.2227C63.2227 29.2383 63.2832 28.9961 63.4043 28.7617C63.5254 28.5273 63.7012 28.3184 63.9316 28.1348C64.1621 27.9512 64.4375 27.8066 64.7578 27.7012C65.0781 27.5957 65.4375 27.543 65.8359 27.543C66.3125 27.543 66.7344 27.623 67.1016 27.7832C67.4727 27.9434 67.7637 28.1855 67.9746 28.5098C68.1895 28.8301 68.2969 29.2324 68.2969 29.7168V32.5352C68.2969 32.8242 68.3164 33.084 68.3555 33.3145C68.3984 33.541 68.459 33.7383 68.5371 33.9062V34H67.0898C67.0234 33.8477 66.9707 33.6543 66.9316 33.4199C66.8965 33.1816 66.8789 32.9512 66.8789 32.7285ZM67.084 30.1445L67.0957 31.0176H66.082C65.8203 31.0176 65.5898 31.043 65.3906 31.0938C65.1914 31.1406 65.0254 31.2109 64.8926 31.3047C64.7598 31.3984 64.6602 31.5117 64.5938 31.6445C64.5273 31.7773 64.4941 31.9277 64.4941 32.0957C64.4941 32.2637 64.5332 32.418 64.6113 32.5586C64.6895 32.6953 64.8027 32.8027 64.9512 32.8809C65.1035 32.959 65.2871 32.998 65.502 32.998C65.791 32.998 66.043 32.9395 66.2578 32.8223C66.4766 32.7012 66.6484 32.5547 66.7734 32.3828C66.8984 32.207 66.9648 32.041 66.9727 31.8848L67.4297 32.5117C67.3828 32.6719 67.3027 32.8438 67.1895 33.0273C67.0762 33.2109 66.9277 33.3867 66.7441 33.5547C66.5645 33.7188 66.3477 33.8535 66.0938 33.959C65.8438 34.0645 65.5547 34.1172 65.2266 34.1172C64.8125 34.1172 64.4434 34.0352 64.1191 33.8711C63.7949 33.7031 63.541 33.4785 63.3574 33.1973C63.1738 32.9121 63.082 32.5898 63.082 32.2305C63.082 31.8945 63.1445 31.5977 63.2695 31.3398C63.3984 31.0781 63.5859 30.8594 63.832 30.6836C64.082 30.5078 64.3867 30.375 64.7461 30.2852C65.1055 30.1914 65.5156 30.1445 65.9766 30.1445H67.084ZM78.5566 30.959V32.084H72.4043L72.3574 31.2344L76.0371 25.4688H77.168L75.9434 27.5664L73.8281 30.959H78.5566ZM77.4902 25.4688V34H76.0781V25.4688H77.4902Z" fill="black"/>
</svg>
